<svg width="390" height="414" viewBox="0 0 390 414" fill="none" xmlns="http://www.w3.org/2000/svg">
<g opacity="0.6">
<path d="M383.849 206.939C378.71 206.939 373.782 204.898 370.149 201.265C366.516 197.631 364.474 192.703 364.474 187.565C364.474 182.426 366.516 177.498 370.149 173.865C373.782 170.232 378.71 168.19 383.849 168.19L383.849 187.565L383.849 206.939Z" fill="#FFC700"/>
<path d="M26.8707 200.127C32.0091 200.127 36.9371 198.086 40.5705 194.452C44.2039 190.819 46.2451 185.891 46.2451 180.752C46.2451 175.614 44.2039 170.686 40.5705 167.053C36.9371 163.419 32.0091 161.378 26.8707 161.378L26.8707 180.752L26.8707 200.127Z" fill="#52ACFF"/>
<path d="M63.6585 142.901C68.7969 142.901 73.7249 140.86 77.3583 137.227C80.9917 133.593 83.033 128.665 83.033 123.527C83.033 118.388 80.9917 113.46 77.3583 109.827C73.7249 106.194 68.7969 104.152 63.6585 104.152L63.6585 123.527L63.6585 142.901Z" fill="#86FFE2"/>
<path d="M277.573 51.6131C282.711 51.6131 287.639 49.5719 291.273 45.9385C294.906 42.3051 296.947 37.3771 296.947 32.2387C296.947 27.1003 294.906 22.1723 291.273 18.5389C287.639 14.9055 282.711 12.8643 277.573 12.8643L277.573 32.2387L277.573 51.6131Z" fill="#86FFE2"/>
<path d="M367.881 149.115C371.675 149.115 375.314 147.608 377.997 144.925C380.68 142.242 382.187 138.603 382.187 134.809C382.187 131.015 380.68 127.376 377.997 124.693C375.314 122.01 371.675 120.502 367.881 120.502L367.881 134.809L367.881 149.115Z" fill="#52ACFF"/>
<path d="M40.9408 62.8163C45.0087 62.8163 48.91 61.2004 51.7864 58.3239C54.6629 55.4475 56.2789 51.5462 56.2789 47.4782C56.2789 43.4103 54.6629 39.509 51.7864 36.6326C48.91 33.7561 45.0087 32.1401 40.9408 32.1401L40.9408 47.4782L40.9408 62.8163Z" fill="#FFC700"/>
<path d="M203.696 274.462C206.586 274.462 209.358 273.314 211.402 271.27C213.446 269.226 214.594 266.455 214.594 263.564C214.594 260.674 213.446 257.902 211.402 255.858C209.358 253.814 206.586 252.666 203.696 252.666L203.696 263.564L203.696 274.462Z" fill="#FFC700"/>
<path d="M17.0318 127.311C19.9221 127.311 22.6941 126.163 24.7379 124.119C26.7817 122.076 27.9299 119.304 27.9299 116.413C27.9299 113.523 26.7817 110.751 24.7379 108.707C22.6941 106.663 19.9221 105.515 17.0318 105.515L17.0318 116.413L17.0318 127.311Z" fill="#FFC700"/>
<circle cx="-6.688" cy="48.2855" r="10.4945" fill="#86FFE2"/>
<circle cx="-9.10982" cy="170.991" r="10.4945" fill="#86FFE2"/>
<circle cx="146.067" cy="32.8963" r="10.4945" fill="#86FFE2"/>
<circle cx="273.186" cy="76.9021" r="8.17507" fill="#86FFE2"/>
<circle cx="177.81" cy="80.99" r="8.17507" fill="#FF3F3F"/>
<circle cx="90.6095" cy="14.2268" r="8.17507" fill="#FF3F3F"/>
<circle cx="240.08" cy="31.5336" r="10.4945" fill="#52ACFF"/>
<circle cx="271.418" cy="257.71" r="10.4945" fill="#52ACFF"/>
<circle cx="143.342" cy="267.248" r="10.4945" fill="#52ACFF"/>
<path d="M348.124 56.4644C354.986 60.9043 367.499 69.3807 367.499 69.3807C367.499 69.3807 356.735 75.4352 353.775 76.6461L367.902 83.9115L351.353 91.1769" stroke="#FF3F3F" stroke-width="2.36994"/>
<path d="M183.26 8.77686C190.122 13.2168 202.635 21.6932 202.635 21.6932C202.635 21.6932 191.871 27.7477 188.911 28.9586L203.038 36.224L186.489 43.4894" stroke="#FF3F3F" stroke-width="2.36994"/>
<path d="M82.4344 52.377C87.4757 55.6811 96.6687 61.9891 96.6687 61.9891C96.6687 61.9891 88.7607 66.4948 86.5861 67.3959L96.9652 72.8027L84.8068 78.2095" stroke="#FF3F3F" stroke-width="2.36994"/>
<path d="M378.399 241.766C383.537 241.766 388.465 243.807 392.099 247.44C395.732 251.074 397.773 256.002 397.773 261.14C397.773 266.279 395.732 271.207 392.099 274.84C388.465 278.473 383.537 280.515 378.399 280.515L378.399 261.14L378.399 241.766Z" fill="#52ACFF"/>
<path d="M248.96 352.425C254.099 352.425 259.027 354.466 262.66 358.1C266.293 361.733 268.335 366.661 268.335 371.799C268.335 376.938 266.293 381.866 262.66 385.499C259.027 389.133 254.099 391.174 248.96 391.174L248.96 371.799L248.96 352.425Z" fill="#86FFE2"/>
<path d="M368.56 314.582C371.45 314.582 374.222 315.73 376.266 317.774C378.31 319.817 379.458 322.589 379.458 325.48C379.458 328.37 378.31 331.142 376.266 333.186C374.222 335.23 371.45 336.378 368.56 336.378L368.56 325.48L368.56 314.582Z" fill="#FFC700"/>
<circle cx="10.4945" cy="10.4945" r="10.4945" transform="matrix(1 8.74228e-08 8.74228e-08 -1 305.733 367.559)" fill="#86FFE2"/>
<circle cx="10.4945" cy="10.4945" r="10.4945" transform="matrix(1 8.74228e-08 8.74228e-08 -1 331.924 281.397)" fill="#86FFE2"/>
<circle cx="10.4945" cy="10.4945" r="10.4945" transform="matrix(1 8.74228e-08 8.74228e-08 -1 106.96 381.637)" fill="#86FFE2"/>
<circle cx="8.17507" cy="8.17507" r="8.17507" transform="matrix(1 8.74228e-08 8.74228e-08 -1 226.861 323.048)" fill="#86FFE2"/>
<circle cx="8.17507" cy="8.17507" r="8.17507" transform="matrix(1 8.74228e-08 8.74228e-08 -1 151.922 323.048)" fill="#FF3F3F"/>
<circle cx="8.17507" cy="8.17507" r="8.17507" transform="matrix(1 8.74228e-08 8.74228e-08 -1 333.137 402.543)" fill="#FF3F3F"/>
<circle cx="8.17507" cy="8.17507" r="8.17507" transform="matrix(1 8.74228e-08 8.74228e-08 -1 320.874 27.8521)" fill="#FF3F3F"/>
<circle cx="8.17507" cy="8.17507" r="8.17507" transform="matrix(1 8.74228e-08 8.74228e-08 -1 -0.678833 388.918)" fill="#FF3F3F"/>
<circle cx="10.4945" cy="10.4945" r="10.4945" transform="matrix(1 8.74228e-08 8.74228e-08 -1 200.973 382.999)" fill="#52ACFF"/>
<path d="M293.624 323.966C299.505 320.249 310.23 313.152 310.23 313.152C310.23 313.152 301.004 308.083 298.467 307.07L310.576 300.987L296.391 294.904" stroke="#FF3F3F" stroke-width="2.36994"/>
<path d="M154.647 395.262C161.509 390.822 174.022 382.345 174.022 382.345C174.022 382.345 163.258 376.291 160.298 375.08L174.426 367.815L157.877 360.549" stroke="#FF3F3F" stroke-width="2.36994"/>
<path d="M51.3959 368.531C56.5343 368.531 61.4623 370.573 65.0957 374.206C68.7291 377.839 70.7704 382.767 70.7704 387.906C70.7704 393.044 68.7291 397.972 65.0957 401.606C61.4623 405.239 56.5343 407.28 51.3959 407.28L51.3959 387.906L51.3959 368.531Z" fill="#FFC700"/>
<path d="M18.6956 224.105C23.834 224.105 28.762 226.146 32.3954 229.779C36.0288 233.413 38.0701 238.341 38.0701 243.479C38.0701 248.617 36.0288 253.545 32.3954 257.179C28.762 260.812 23.834 262.854 18.6956 262.854L18.6956 243.479L18.6956 224.105Z" fill="#FFC700"/>
<path d="M14.99 280.566C18.7843 280.566 22.4232 282.073 25.1062 284.756C27.7891 287.439 29.2964 291.078 29.2964 294.872C29.2964 298.667 27.7891 302.306 25.1062 304.988C22.4232 307.671 18.7843 309.179 14.99 309.179L14.99 294.872L14.99 280.566Z" fill="#52ACFF"/>
<circle cx="10.4945" cy="10.4945" r="10.4945" transform="matrix(1 8.74228e-08 8.74228e-08 -1 64.7217 344.604)" fill="#86FFE2"/>
<circle cx="10.4945" cy="10.4945" r="10.4945" transform="matrix(1 8.74228e-08 8.74228e-08 -1 74.2593 283.291)" fill="#FFC700"/>
<circle cx="10.4945" cy="10.4945" r="10.4945" transform="matrix(1 8.74228e-08 8.74228e-08 -1 294.986 413.994)" fill="#FFC700"/>
<path d="M323.599 136.14C330.461 131.7 342.973 123.224 342.973 123.224C342.973 123.224 332.21 117.169 329.25 115.958L343.377 108.693L326.828 101.428" stroke="#52ACFF" stroke-width="2.36994"/>
<path d="M-22.4791 363.68C-15.6173 359.24 -3.10462 350.763 -3.10462 350.763C-3.10462 350.763 -13.8682 344.709 -16.8282 343.498L-2.70098 336.233L-19.25 328.967" stroke="#FFC700" stroke-width="2.36994"/>
</g>
</svg>
